<?xml version="1.0" encoding="UTF-8" standalone="no"?>
<!-- Created with Inkscape (http://www.inkscape.org/) -->

<svg
   xmlns:dc="http://purl.org/dc/elements/1.1/"
   xmlns:cc="http://creativecommons.org/ns#"
   xmlns:rdf="http://www.w3.org/1999/02/22-rdf-syntax-ns#"
   xmlns:svg="http://www.w3.org/2000/svg"
   xmlns="http://www.w3.org/2000/svg"
   xmlns:sodipodi="http://sodipodi.sourceforge.net/DTD/sodipodi-0.dtd"
   xmlns:inkscape="http://www.inkscape.org/namespaces/inkscape"
   width="157.87711mm"
   height="125.96275mm"
   viewBox="0 0 157.87711 125.96275"
   version="1.1"
   id="svg8"
   inkscape:version="0.92.3 (2405546, 2018-03-11)"
   sodipodi:docname="delivery.svg"
   inkscape:export-filename="/home/algot/Documents/runeman.org/clipart/2018/hand-truck.png"
   inkscape:export-xdpi="81.252312"
   inkscape:export-ydpi="81.252312">
  <title
     id="title1169">Delivery</title>
  <defs
     id="defs2">
    <filter
       inkscape:collect="always"
       style="color-interpolation-filters:sRGB"
       id="filter825"
       x="-0.28827238"
       width="1.5765448"
       y="-0.012521225"
       height="1.0250424">
      <feGaussianBlur
         inkscape:collect="always"
         stdDeviation="0.35533764"
         id="feGaussianBlur827" />
    </filter>
  </defs>
  <sodipodi:namedview
     id="base"
     pagecolor="#ffffff"
     bordercolor="#666666"
     borderopacity="1.0"
     inkscape:pageopacity="0.0"
     inkscape:pageshadow="2"
     inkscape:zoom="0.70710678"
     inkscape:cx="641.04937"
     inkscape:cy="331.98673"
     inkscape:document-units="mm"
     inkscape:current-layer="layer1"
     showgrid="false"
     inkscape:snap-nodes="false"
     inkscape:window-width="1366"
     inkscape:window-height="712"
     inkscape:window-x="0"
     inkscape:window-y="0"
     inkscape:window-maximized="1"
     fit-margin-top="0"
     fit-margin-left="0"
     fit-margin-right="0"
     fit-margin-bottom="0">
    <inkscape:grid
       type="xygrid"
       id="grid10"
       originx="9.7734127"
       originy="-110.39571" />
  </sodipodi:namedview>
  <metadata
     id="metadata5">
    <rdf:RDF>
      <cc:Work
         rdf:about="">
        <dc:format>image/svg+xml</dc:format>
        <dc:type
           rdf:resource="http://purl.org/dc/dcmitype/StillImage" />
        <dc:title>Delivery</dc:title>
        <dc:date>2018-09-05</dc:date>
        <dc:creator>
          <cc:Agent>
            <dc:title>Algot Runeman</dc:title>
          </cc:Agent>
        </dc:creator>
        <dc:rights>
          <cc:Agent>
            <dc:title>Algot Runeman</dc:title>
          </cc:Agent>
        </dc:rights>
        <dc:publisher>
          <cc:Agent>
            <dc:title>runeman.org</dc:title>
          </cc:Agent>
        </dc:publisher>
        <dc:description>Tool for package delivery</dc:description>
        <dc:identifier>delivery.svg</dc:identifier>
        <cc:license
           rdf:resource="http://creativecommons.org/publicdomain/zero/1.0/" />
      </cc:Work>
      <cc:License
         rdf:about="http://creativecommons.org/publicdomain/zero/1.0/">
        <cc:permits
           rdf:resource="http://creativecommons.org/ns#Reproduction" />
        <cc:permits
           rdf:resource="http://creativecommons.org/ns#Distribution" />
        <cc:permits
           rdf:resource="http://creativecommons.org/ns#DerivativeWorks" />
      </cc:License>
    </rdf:RDF>
  </metadata>
  <g
     inkscape:label="Layer 1"
     inkscape:groupmode="layer"
     id="layer1"
     transform="translate(9.7734133,-60.641512)">
    <path
       style="fill:#999999;fill-rule:evenodd;stroke:#000000;stroke-width:0.26458332px;stroke-linecap:butt;stroke-linejoin:miter;stroke-opacity:1"
       d="m 43.922413,156.98588 0.529167,0.52917 -10.186461,10.18646 -0.328353,-0.56873 z"
       id="path898"
       inkscape:connector-curvature="0" />
    <path
       style="fill:#000000;fill-rule:evenodd;stroke:#000000;stroke-width:0.26458332px;stroke-linecap:butt;stroke-linejoin:miter;stroke-opacity:1"
       d="m 20.553078,175.38019 -16.2175004,-15.07616 -0.3592307,0.62221 17.6568561,17.62702 3.778349,-2.81256 -2.047991,-2.96779 z"
       id="path829"
       inkscape:connector-curvature="0"
       sodipodi:nodetypes="ccccccc" />
    <g
       id="g841"
       transform="matrix(0.48415204,0.48415204,-0.87519448,0.87519448,152.23738,-4.6268759)">
      <path
         inkscape:connector-curvature="0"
         id="path12"
         d="m 50,107 v 71.36041 h 5 V 107 c -1.336267,-0.7311 -2.936362,-0.87841 -5,0 z"
         style="fill:#e6e6e6;fill-rule:evenodd;stroke:#000000;stroke-width:0.26458332px;stroke-linecap:butt;stroke-linejoin:miter;stroke-opacity:1"
         sodipodi:nodetypes="ccccc" />
      <path
         style="fill:#e6e6e6;fill-rule:evenodd;stroke:#000000;stroke-width:0.2007502px;stroke-linecap:butt;stroke-linejoin:miter;stroke-opacity:1;filter:url(#filter825)"
         d="m 51.020826,107.94541 v 68.10918 h 2.958349 v -68.10918 z"
         id="path14"
         inkscape:connector-curvature="0" />
    </g>
    <path
       style="fill:#e6e6e6;fill-rule:evenodd;stroke:#000000;stroke-width:0.11961635px;stroke-linecap:butt;stroke-linejoin:miter;stroke-opacity:1"
       d="M 71.775715,129.2481 84.56285,116.46097 c 0.753488,-0.75349 2.159694,-0.24483 3.196782,0 2.319002,0.54744 6.393565,3.19678 6.393565,3.19678 0.53522,2.11829 -0.579049,1.6932 -1.598391,1.59839 0,0 -5.848384,-3.74196 -7.070219,-2.52013 l -7.578627,7.57863 c -1.76007,0.22319 -3.520138,1.56537 -5.280209,3.7835 z"
       id="path843"
       inkscape:connector-curvature="0"
       sodipodi:nodetypes="cssccsccc" />
    <path
       style="fill:#999999;fill-rule:evenodd;stroke:#000000;stroke-width:0.26458332px;stroke-linecap:butt;stroke-linejoin:miter;stroke-opacity:1"
       d="m 44.517722,157.4489 -6.349997,25.53229 -0.595312,-0.59531 6.217708,-24.34167 z"
       id="path900"
       inkscape:connector-curvature="0" />
    <g
       id="g837"
       transform="matrix(0.56418094,0.56418094,-0.56418094,0.56418094,122.16344,72.263081)">
      <circle
         r="12.435416"
         cy="171.85208"
         cx="13.229166"
         id="path831"
         style="opacity:1;fill:#000000;fill-opacity:1;stroke:none;stroke-width:1;stroke-linecap:round;stroke-linejoin:round;stroke-miterlimit:4;stroke-dasharray:none;stroke-dashoffset:0;stroke-opacity:1" />
      <circle
         style="opacity:1;fill:#cccccc;fill-opacity:1;stroke:none;stroke-width:0.61702126;stroke-linecap:round;stroke-linejoin:round;stroke-miterlimit:4;stroke-dasharray:none;stroke-dashoffset:0;stroke-opacity:1"
         id="circle833"
         cx="13.229166"
         cy="171.85208"
         r="7.6729164" />
    </g>
    <path
       style="fill:none;fill-rule:evenodd;stroke:#000000;stroke-width:0.36460647;stroke-linecap:butt;stroke-linejoin:miter;stroke-opacity:1"
       d="m 31.859042,173.5929 -0.481722,1.095 2.443879,4.23292 c 0,0 0.691947,0.0105 0.822832,0.26755 0.130867,0.25702 -0.01409,0.68524 -0.267565,0.82284 -0.239787,0.13017 -0.646448,0.0198 -0.790672,-0.21186 -0.120391,-0.19351 0.132632,-0.67067 0.132632,-0.67067 l -3.27994,-5.68102"
       id="path847"
       inkscape:connector-curvature="0"
       sodipodi:nodetypes="cccssscc" />
    <circle
       style="opacity:1;fill:#808080;fill-opacity:1;stroke:#000000;stroke-width:0.5;stroke-linecap:round;stroke-linejoin:round;stroke-miterlimit:4;stroke-dasharray:none;stroke-dashoffset:0;stroke-opacity:1"
       id="path845"
       cx="148.03549"
       cy="101.83114"
       r="1.8951896"
       transform="rotate(45)" />
    <rect
       style="opacity:1;fill:#666666;fill-opacity:1;stroke:none;stroke-width:1.5;stroke-linecap:round;stroke-linejoin:round;stroke-miterlimit:4;stroke-dasharray:none;stroke-dashoffset:0;stroke-opacity:1"
       id="rect858"
       width="0.46772167"
       height="2.0579753"
       x="143.26918"
       y="37.868412"
       transform="rotate(45)" />
    <rect
       style="opacity:1;fill:#666666;fill-opacity:1;stroke:none;stroke-width:1.3602252;stroke-linecap:round;stroke-linejoin:round;stroke-miterlimit:4;stroke-dasharray:none;stroke-dashoffset:0;stroke-opacity:1"
       id="rect860"
       width="1"
       height="0.93544334"
       x="143.64336"
       y="38.429668"
       transform="rotate(45)" />
    <rect
       y="28.139807"
       x="144.29817"
       height="2.0579753"
       width="0.46772167"
       id="rect862"
       style="opacity:1;fill:#666666;fill-opacity:1;stroke:none;stroke-width:1.5;stroke-linecap:round;stroke-linejoin:round;stroke-miterlimit:4;stroke-dasharray:none;stroke-dashoffset:0;stroke-opacity:1"
       transform="rotate(45)" />
    <rect
       y="28.701063"
       x="144.67235"
       height="0.93544334"
       width="1"
       id="rect864"
       style="opacity:1;fill:#666666;fill-opacity:1;stroke:none;stroke-width:1.3602252;stroke-linecap:round;stroke-linejoin:round;stroke-miterlimit:4;stroke-dasharray:none;stroke-dashoffset:0;stroke-opacity:1"
       transform="rotate(45)" />
    <rect
       style="opacity:1;fill:#666666;fill-opacity:1;stroke:none;stroke-width:1.5;stroke-linecap:round;stroke-linejoin:round;stroke-miterlimit:4;stroke-dasharray:none;stroke-dashoffset:0;stroke-opacity:1"
       id="rect866"
       width="0.46772167"
       height="2.0579753"
       x="138.0417"
       y="28.139807"
       transform="rotate(45)" />
    <rect
       y="37.868404"
       x="138.0417"
       height="2.0579753"
       width="0.46772167"
       id="rect868"
       style="opacity:1;fill:#666666;fill-opacity:1;stroke:none;stroke-width:1.5;stroke-linecap:round;stroke-linejoin:round;stroke-miterlimit:4;stroke-dasharray:none;stroke-dashoffset:0;stroke-opacity:1"
       transform="rotate(45)" />
    <circle
       r="1"
       cy="88.389626"
       cx="140.22929"
       id="circle870"
       style="opacity:1;fill:#666666;fill-opacity:1;stroke:none;stroke-width:1.78276849;stroke-linecap:round;stroke-linejoin:round;stroke-miterlimit:4;stroke-dasharray:none;stroke-dashoffset:0;stroke-opacity:1"
       transform="rotate(45)" />
    <rect
       style="opacity:1;fill:#666666;fill-opacity:1;stroke:none;stroke-width:1.5;stroke-linecap:round;stroke-linejoin:round;stroke-miterlimit:4;stroke-dasharray:none;stroke-dashoffset:0;stroke-opacity:1"
       id="rect858-3"
       width="0.46772167"
       height="2.0579753"
       x="142.89708"
       y="83.783272"
       transform="rotate(45)" />
    <rect
       style="opacity:1;fill:#666666;fill-opacity:1;stroke:none;stroke-width:1.3602252;stroke-linecap:round;stroke-linejoin:round;stroke-miterlimit:4;stroke-dasharray:none;stroke-dashoffset:0;stroke-opacity:1"
       id="rect860-6"
       width="1"
       height="0.93544334"
       x="143.27126"
       y="84.344521"
       transform="rotate(45)" />
    <rect
       y="83.783257"
       x="138.29231"
       height="2.0579753"
       width="0.46772167"
       id="rect868-7"
       style="opacity:1;fill:#666666;fill-opacity:1;stroke:none;stroke-width:1.5;stroke-linecap:round;stroke-linejoin:round;stroke-miterlimit:4;stroke-dasharray:none;stroke-dashoffset:0;stroke-opacity:1"
       transform="rotate(45)" />
    <rect
       y="90.662346"
       x="142.89708"
       height="2.0579753"
       width="0.46772167"
       id="rect923"
       style="opacity:1;fill:#666666;fill-opacity:1;stroke:none;stroke-width:1.5;stroke-linecap:round;stroke-linejoin:round;stroke-miterlimit:4;stroke-dasharray:none;stroke-dashoffset:0;stroke-opacity:1"
       transform="rotate(45)" />
    <rect
       y="91.223595"
       x="143.27126"
       height="0.93544334"
       width="1"
       id="rect925"
       style="opacity:1;fill:#666666;fill-opacity:1;stroke:none;stroke-width:1.3602252;stroke-linecap:round;stroke-linejoin:round;stroke-miterlimit:4;stroke-dasharray:none;stroke-dashoffset:0;stroke-opacity:1"
       transform="rotate(45)" />
    <rect
       style="opacity:1;fill:#666666;fill-opacity:1;stroke:none;stroke-width:1.5;stroke-linecap:round;stroke-linejoin:round;stroke-miterlimit:4;stroke-dasharray:none;stroke-dashoffset:0;stroke-opacity:1"
       id="rect927"
       width="0.46772167"
       height="2.0579753"
       x="138.29231"
       y="90.662331"
       transform="rotate(45)" />
    <rect
       style="opacity:1;fill:#ff6600;fill-opacity:1;stroke:#000000;stroke-width:0.5;stroke-linecap:round;stroke-linejoin:round;stroke-miterlimit:4;stroke-dasharray:none;stroke-dashoffset:0;stroke-opacity:1"
       id="rect929"
       width="41.907864"
       height="37.417732"
       x="95.665619"
       y="71.716042"
       transform="rotate(45)" />
    <rect
       style="opacity:1;fill:#ff9955;fill-opacity:1;stroke:none;stroke-width:0.43232265;stroke-linecap:round;stroke-linejoin:round;stroke-miterlimit:4;stroke-dasharray:none;stroke-dashoffset:0;stroke-opacity:1"
       id="rect931"
       width="4.931983"
       height="12.415529"
       x="114.34066"
       y="71.682198"
       transform="rotate(45)" />
    <rect
       y="97.123177"
       x="114.33756"
       height="12.047541"
       width="4.9381709"
       id="rect933"
       style="opacity:1;fill:#ff9955;fill-opacity:1;stroke:none;stroke-width:0.42613465;stroke-linecap:round;stroke-linejoin:round;stroke-miterlimit:4;stroke-dasharray:none;stroke-dashoffset:0;stroke-opacity:1"
       transform="rotate(45)" />
    <g
       id="g958"
       transform="rotate(45,38.735174,138.40221)">
      <circle
         r="1"
         cy="121.23702"
         cx="38.021507"
         id="path856"
         style="opacity:1;fill:#666666;fill-opacity:1;stroke:none;stroke-width:1.78276849;stroke-linecap:round;stroke-linejoin:round;stroke-miterlimit:4;stroke-dasharray:none;stroke-dashoffset:0;stroke-opacity:1" />
      <rect
         style="opacity:1;fill:#ff6600;fill-opacity:1;stroke:#000000;stroke-width:0.31250542;stroke-linecap:round;stroke-linejoin:round;stroke-miterlimit:4;stroke-dasharray:none;stroke-dashoffset:0;stroke-opacity:1"
         id="rect940"
         width="26.192869"
         height="23.386488"
         x="24.925072"
         y="116.1311" />
      <rect
         style="opacity:1;fill:#ffb380;fill-opacity:1;stroke:none;stroke-width:0.26584828;stroke-linecap:round;stroke-linejoin:round;stroke-miterlimit:4;stroke-dasharray:none;stroke-dashoffset:0;stroke-opacity:1"
         id="rect942"
         width="3.9585934"
         height="5.8492165"
         x="36.04221"
         y="116.14833" />
      <rect
         y="129.45885"
         x="36.039726"
         height="9.6698055"
         width="3.9635601"
         id="rect944"
         style="opacity:1;fill:#ffb380;fill-opacity:1;stroke:none;stroke-width:0.34203154;stroke-linecap:round;stroke-linejoin:round;stroke-miterlimit:4;stroke-dasharray:none;stroke-dashoffset:0;stroke-opacity:1" />
    </g>
    <g
       id="g966"
       transform="matrix(0.40425049,0.5509568,-0.75557279,0.6563195,232.59512,57.759923)">
      <path
         inkscape:connector-curvature="0"
         id="path960"
         d="m -118.22952,179.83498 -8.98026,1.49671 17.96051,1.87088 22.824818,-2.24506 8.980255,-5.61266 -8.980255,1.49671 -10.851142,-0.74835 h -9.354436 z"
         style="fill:#008080;fill-rule:evenodd;stroke:#000000;stroke-width:0.26458332px;stroke-linecap:butt;stroke-linejoin:miter;stroke-opacity:1" />
      <rect
         y="176.09322"
         x="-106.63002"
         height="3.7417734"
         width="13.096207"
         id="rect962"
         style="opacity:1;fill:#ffffff;fill-opacity:1;stroke:none;stroke-width:0.5;stroke-linecap:round;stroke-linejoin:round;stroke-miterlimit:4;stroke-dasharray:none;stroke-dashoffset:0;stroke-opacity:1" />
    </g>
    <g
       transform="matrix(-0.54507977,0,0,0.54507977,271.45872,-143.69529)"
       id="layer1-3"
       inkscape:label="Layer 1">
      <g
         transform="translate(-64.338919,15.463381)"
         id="g3203">
        <path
           style="fill:#000000;stroke:#000000;stroke-width:1px;stroke-linecap:butt;stroke-linejoin:miter;stroke-opacity:1"
           d="m 388.75,435.93913 c -10.63891,-22.38884 -24.51863,-29.79608 -41.5,-39.5 -11.17285,-5.34571 -15.2418,-2.9836 -19.5,4.5 l -5.5,30.5 c -1.99099,6.50277 -6.87381,13.1137 -11.03368,17.44759 -6.12501,6.38124 -12.43462,9.57787 -19.96632,14.55241 l 4,11 25,-14.5 8.5,-10 c 1.00735,17.82598 1.48132,17.68535 4.5,32 l -18,37.5 -8.93934,57.11091 13.43934,3.38909 11.5,-45.5 15,-19 17,67 12,-7.5 -9,-76.5 c 1.98977,-24.20277 8.22996,-46.42486 -2,-71 l 13.5,11.5 10.85634,27.06768 8.75415,-3.74585 z"
           id="path3139"
           inkscape:connector-curvature="0"
           sodipodi:nodetypes="ccccscccccccccccccccccc" />
        <circle
           r="17.67767"
           cy="-34.130554"
           cx="-716.29919"
           style="color:#000000;display:inline;overflow:visible;visibility:visible;fill:#000000;fill-opacity:1;fill-rule:nonzero;stroke:none;stroke-width:6;marker:none;enable-background:accumulate"
           id="path3143"
           transform="matrix(0.84,0,0,0.84,928.98441,405.30414)" />
      </g>
    </g>
    <path
       style="fill:#552200;fill-rule:evenodd;stroke:#000000;stroke-width:0.16003987px;stroke-linecap:butt;stroke-linejoin:miter;stroke-opacity:1"
       d="m 142.58816,75.438145 c -4.17858,-4.636548 -4.59056,-4.821664 -4.97927,-4.979272 l -3.16863,1.584313 c 3.80259,2.479891 6.08753,3.238018 8.1479,3.394959 z"
       id="path1038"
       inkscape:connector-curvature="0"
       sodipodi:nodetypes="cccc" />
    <path
       style="fill:#d45500;fill-rule:evenodd;stroke:#000000;stroke-width:0.16580248px;stroke-linecap:butt;stroke-linejoin:miter;stroke-opacity:1"
       d="m 137.80363,70.456673 c 0.91345,-1.51911 0.13303,-3.560114 -0.48611,-5.202794 -0.48346,-1.282714 -1.22022,-2.632223 -2.43054,-3.393126 -1.64586,-1.034728 -3.84751,-1.167626 -5.8333,-1.131044 -1.6699,0.03077 -3.38411,0.405222 -4.86109,1.131044 -0.86271,0.423951 -2.18749,2.471126 -2.18749,2.471126 0,0 2.02115,2.994248 3.64582,4.315126 1.77367,1.442012 4.09178,2.229363 6.31941,2.940706 0.78151,0.249558 2.43054,0.45242 2.43054,0.45242 0,0 2.78346,-0.553525 3.40276,-1.583458 z"
       id="path1040"
       inkscape:connector-curvature="0"
       sodipodi:nodetypes="ssssscsscs" />
    <path
       style="opacity:1;fill:#ffff00;fill-opacity:1;stroke:none;stroke-width:0.27083331;stroke-linecap:round;stroke-linejoin:round;stroke-miterlimit:4;stroke-dasharray:none;stroke-dashoffset:0;stroke-opacity:1"
       d="M 6.7457099,129.69522 H 25.189533 v 4.86431 H 6.7457099 Z"
       id="rect1086" />
    <g
       aria-label="FRAGILE"
       style="font-style:normal;font-variant:normal;font-weight:normal;font-stretch:normal;font-size:3.43958306px;line-height:125%;font-family:'DejaVu Sans Mono';-inkscape-font-specification:'DejaVu Sans Mono';text-align:center;letter-spacing:0px;word-spacing:0px;text-anchor:middle;fill:#000000;fill-opacity:1;stroke:none;stroke-width:0.14331596px;stroke-linecap:butt;stroke-linejoin:miter;stroke-opacity:1"
       id="text1076">
      <path
         d="m 9.0156657,131.03866 h 1.4762663 v 0.28551 H 9.3566009 v 0.73897 h 1.0295241 v 0.28552 H 9.3566009 v 1.19747 H 9.0156657 Z"
         style="stroke-width:0.14331596px"
         id="path1321" />
      <path
         d="m 11.969878,132.36209 q 0.131,0.0336 0.223371,0.12764 0.09237,0.0924 0.23009,0.37117 l 0.340935,0.68523 h -0.364448 l -0.298948,-0.63317 q -0.129321,-0.2704 -0.233449,-0.34765 -0.102448,-0.0789 -0.268717,-0.0789 h -0.32414 v 1.05976 h -0.340936 v -2.50747 h 0.698666 q 0.413153,0 0.633165,0.18642 0.220012,0.18642 0.220012,0.53911 0,0.24857 -0.136038,0.40644 -0.134358,0.15619 -0.379563,0.19146 z m -0.695306,-1.04464 v 0.89013 h 0.371166 q 0.243525,0 0.362768,-0.10917 0.119243,-0.10916 0.119243,-0.33422 0,-0.21665 -0.12764,-0.33085 -0.125962,-0.11589 -0.367807,-0.11589 z"
         style="stroke-width:0.14331596px"
         id="path1323" />
      <path
         d="m 13.797156,131.33761 -0.35773,1.28312 h 0.715461 z m -0.204897,-0.29895 h 0.411474 l 0.767524,2.50747 h -0.351012 l -0.184743,-0.65332 h -0.87837 l -0.181385,0.65332 h -0.351012 z"
         style="stroke-width:0.14331596px"
         id="path1325" />
      <path
         d="m 16.685869,133.33955 q -0.136038,0.12596 -0.307346,0.19146 -0.169628,0.0638 -0.367807,0.0638 -0.476973,0 -0.742332,-0.34093 -0.265358,-0.34262 -0.265358,-0.95899 0,-0.61469 0.268717,-0.9573 0.268718,-0.3443 0.747371,-0.3443 0.157871,0 0.302307,0.0453 0.144435,0.0437 0.278794,0.13436 v 0.34765 q -0.136038,-0.12932 -0.278794,-0.18978 -0.142756,-0.0621 -0.302307,-0.0621 -0.330859,0 -0.497128,0.25696 -0.164589,0.25528 -0.164589,0.7692 0,0.52232 0.159551,0.77424 0.16123,0.25025 0.493768,0.25025 0.112526,0 0.1965,-0.0252 0.08565,-0.0269 0.154512,-0.0823 v -0.67347 H 15.99728 v -0.2788 h 0.688589 z"
         style="stroke-width:0.14331596px"
         id="path1327" />
      <path
         d="m 17.238419,131.03866 h 1.392292 v 0.28551 h -0.525678 v 1.93645 h 0.525678 v 0.28551 h -1.392292 v -0.28551 h 0.525679 v -1.93645 h -0.525679 z"
         style="stroke-width:0.14331596px"
         id="path1329" />
      <path
         d="m 19.331056,131.03866 h 0.340935 v 2.22196 h 1.210908 v 0.28551 h -1.551843 z"
         style="stroke-width:0.14331596px"
         id="path1331" />
      <path
         d="m 21.36995,131.03866 h 1.488022 v 0.28551 h -1.148767 v 0.74233 h 1.098383 v 0.28551 h -1.098383 v 0.90861 h 1.180678 v 0.28551 H 21.36995 Z"
         style="stroke-width:0.14331596px"
         id="path1333" />
    </g>
    <flowRoot
       xml:space="preserve"
       id="flowRoot1078"
       style="font-style:normal;font-variant:normal;font-weight:normal;font-stretch:normal;font-size:24px;line-height:125%;font-family:'DejaVu Sans Mono';-inkscape-font-specification:'DejaVu Sans Mono';text-align:center;letter-spacing:0px;word-spacing:0px;text-anchor:middle;fill:#000000;fill-opacity:1;stroke:none;stroke-width:1px;stroke-linecap:butt;stroke-linejoin:miter;stroke-opacity:1"
       transform="matrix(0.26458333,0,0,0.26458333,29.196344,86.80139)"><flowRegion
         id="flowRegion1080"><rect
           id="rect1082"
           width="127.27922"
           height="36.769554"
           x="-360.62445"
           y="399.70627" /></flowRegion><flowPara
         id="flowPara1084" /></flowRoot>    <g
       aria-label="PPD"
       style="font-style:normal;font-variant:normal;font-weight:normal;font-stretch:normal;font-size:4.71677828px;line-height:125%;font-family:'DejaVu Sans Mono';-inkscape-font-specification:'DejaVu Sans Mono';text-align:center;letter-spacing:0px;word-spacing:0px;text-anchor:middle;fill:#ffffff;fill-opacity:1;stroke:none;stroke-width:0.19653241px;stroke-linecap:butt;stroke-linejoin:miter;stroke-opacity:1"
       id="text1346"
       transform="rotate(13.090186,275.17746,-24.281091)">
      <path
         d="m 154.28866,97.029285 v 1.292047 h 0.53893 q 0.32243,0 0.50207,-0.17043 0.18195,-0.170431 0.18195,-0.476745 0,-0.306314 -0.17964,-0.474441 -0.17965,-0.170431 -0.50438,-0.170431 z m -0.46523,-0.382317 h 1.00416 q 0.57577,0 0.87288,0.262555 0.2971,0.260252 0.2971,0.764634 0,0.508988 -0.2971,0.76924 -0.2948,0.260252 -0.87288,0.260252 h -0.53893 v 1.381871 h -0.46523 z"
         style="fill:#ffffff;stroke-width:0.19653241px"
         id="path1348"
         inkscape:connector-curvature="0" />
      <path
         d="m 157.12609,97.029285 v 1.292047 h 0.53893 q 0.32244,0 0.50208,-0.17043 0.18195,-0.170431 0.18195,-0.476745 0,-0.306314 -0.17965,-0.474441 -0.17964,-0.170431 -0.50438,-0.170431 z m -0.46523,-0.382317 h 1.00416 q 0.57578,0 0.87288,0.262555 0.2971,0.260252 0.2971,0.764634 0,0.508988 -0.2971,0.76924 -0.2948,0.260252 -0.87288,0.260252 h -0.53893 v 1.381871 h -0.46523 z"
         style="fill:#ffffff;stroke-width:0.19653241px"
         id="path1350"
         inkscape:connector-curvature="0" />
      <path
         d="m 160.04875,99.703201 q 0.58729,0 0.8199,-0.287889 0.23262,-0.290193 0.23262,-1.045614 0,-0.762331 -0.23262,-1.050221 -0.23031,-0.290192 -0.8199,-0.290192 h -0.2211 v 2.673916 z m 0.009,-3.056233 q 0.78766,0 1.16077,0.419167 0.3731,0.419167 0.3731,1.303563 0,0.879789 -0.3731,1.298956 -0.37311,0.416866 -1.16077,0.416866 h -0.69785 v -3.438552 z"
         style="fill:#ffffff;stroke-width:0.19653241px"
         id="path1352"
         inkscape:connector-curvature="0" />
    </g>
  </g>
</svg>
