<?xml version="1.0" encoding="utf-8"?>
<!-- Generator: Adobe Illustrator 19.2.1, SVG Export Plug-In . SVG Version: 6.00 Build 0)  -->
<svg version="1.1" id="layer" xmlns="http://www.w3.org/2000/svg" xmlns:xlink="http://www.w3.org/1999/xlink" x="0px" y="0px"
	 viewBox="0 0 652 652" style="enable-background:new 0 0 652 652;" xml:space="preserve">
<style type="text/css">
	.st0{fill:#929395;}
	.st1{fill:#49AD33;}
	.st2{fill:#237A34;}
	.st3{fill:#FFFFFF;}
	.st4{fill:#22611E;}
	.st5{fill:#45B74B;}
</style>
<g>
	<path class="st0" d="M564.4,344.4c-4.7-6.5-4.2-16.8,1.1-22.8l1.3-1.5c5.3-6,4.8-15.5-1-21l-1.4-1.3c-5.8-5.5-7.3-15.7-3.3-22.6
		l1-1.7c4-6.9,1.8-16.1-5-20.4l-1.6-1c-6.8-4.3-10.1-14-7.5-21.6l0.6-1.8c2.6-7.6-1.3-16.2-8.7-19.1l-1.8-0.7
		c-7.4-3-12.6-11.9-11.4-19.8l0.3-1.9c1.2-7.9-4.3-15.6-12.2-17.1l-1.9-0.4c-7.9-1.5-14.6-9.3-15-17.3l-0.1-1.9
		c-0.4-8-7.2-14.5-15.2-14.5h-1.9c-8,0-16.1-6.3-18-14.1l-0.5-1.9c-1.9-7.8-9.8-12.9-17.7-11.4l-1.9,0.4c-7.9,1.5-17-3.2-20.3-10.5
		l-0.8-1.8c-3.3-7.3-12.1-10.8-19.5-7.8l-1.8,0.7c-7.4,3-17.3,0.1-21.9-6.4l-1.1-1.6c-4.6-6.5-13.9-8.3-20.7-4l-1.6,1.1
		c-6.7,4.4-17,3.4-22.8-2.2l-1.4-1.3c-5.8-5.5-15.3-5.5-21,0l-1.4,1.3c-5.8,5.5-16,6.5-22.8,2.2l-1.6-1.1c-6.7-4.4-16-2.6-20.7,4
		l-1.1,1.6c-4.6,6.5-14.5,9.4-21.9,6.4l-1.8-0.7c-7.4-3-16.2,0.5-19.5,7.8l-0.8,1.8c-3.3,7.3-12.5,12-20.3,10.5l-1.9-0.4
		c-7.9-1.5-15.8,3.6-17.7,11.4l-0.5,1.9c-1.9,7.8-10,14.2-18,14.1l-1.9,0c-8,0-14.9,6.5-15.2,14.5l-0.1,1.9c-0.4,8-7.1,15.8-15,17.3
		l-1.9,0.4c-7.9,1.5-13.4,9.2-12.2,17.1l0.3,1.9c1.2,7.9-4,16.8-11.4,19.8l-1.8,0.7c-7.4,3-11.4,11.6-8.7,19.1l0.6,1.8
		c2.6,7.6-0.7,17.3-7.5,21.6l-1.6,1c-6.7,4.3-9,13.5-5,20.4l1,1.7c4,6.9,2.6,17.1-3.3,22.6l-1.4,1.3c-5.8,5.5-6.3,15-1,21l1.3,1.5
		c5.3,6,5.8,16.3,1.1,22.8l-1.1,1.6c-4.7,6.5-3.3,15.9,3,20.8l1.5,1.2c6.3,4.9,8.7,14.9,5.4,22.2l-0.8,1.8
		c-3.3,7.3-0.3,16.2,6.9,19.9l1.7,0.9c7.1,3.7,11.4,13,9.5,20.8l-0.5,1.9c-1.9,7.8,2.8,16,10.5,18.2l1.9,0.5
		c7.7,2.2,13.7,10.6,13.3,18.6l-0.1,1.9c-0.4,8,5.8,15.2,13.8,15.9l1.9,0.2c8,0.7,15.4,7.8,16.5,15.8l0.3,1.9
		c1.1,7.9,8.6,13.8,16.5,13l1.9-0.2c8-0.8,16.6,4.8,19.2,12.4l0.6,1.8c2.6,7.6,11,11.9,18.7,9.6l1.9-0.6c7.7-2.3,17.2,1.5,21.2,8.5
		l1,1.7c4,7,13.1,9.6,20.2,5.9l1.7-0.9c7.1-3.7,17.2-1.7,22.4,4.3l1.3,1.5c5.2,6.1,14.7,7,20.9,2l1.5-1.2c6.3-5,16.6-5,22.9,0
		l1.5,1.2c6.3,5,15.7,4.1,20.9-2l1.3-1.5c5.2-6.1,15.3-8,22.4-4.3l1.7,0.9c7.1,3.7,16.2,1,20.2-5.9l1-1.7c4-7,13.5-10.8,21.2-8.5
		l1.9,0.5c7.7,2.3,16.1-2.1,18.7-9.6l0.6-1.8c2.6-7.6,11.3-13.1,19.2-12.4l1.9,0.2c8,0.8,15.4-5.1,16.5-13l0.3-1.9
		c1.1-7.9,8.6-15,16.5-15.8l1.9-0.2c8-0.7,14.2-7.9,13.8-15.9l-0.1-1.9c-0.4-8,5.6-16.4,13.3-18.6l1.9-0.5
		c7.7-2.2,12.4-10.4,10.5-18.2l-0.5-1.9c-1.9-7.8,2.4-17.1,9.5-20.8l1.7-0.9c7.1-3.7,10.2-12.6,6.9-19.9l-0.8-1.8
		c-3.3-7.3-0.9-17.3,5.4-22.2l1.5-1.2c6.3-4.9,7.7-14.3,3-20.8L564.4,344.4z M319.6,554.7c-129.1,0-233.8-104.7-233.8-233.8
		S190.5,87.2,319.6,87.2c129.1,0,233.8,104.7,233.8,233.8S448.7,554.7,319.6,554.7"/>
</g>
<g>
	<path class="st1" d="M320.2,541c-121.3,0-220-98.7-220-220c0-121.3,98.7-220,220-220c121.3,0,220,98.7,220,220
		C540.2,442.3,441.5,541,320.2,541 M320.2,105.3c-118.9,0-215.7,96.7-215.7,215.7c0,118.9,96.7,215.7,215.7,215.7
		c118.9,0,215.7-96.7,215.7-215.7C535.8,202,439.1,105.3,320.2,105.3"/>
	<path class="st1" d="M259.7,499.2c0,1.1-0.9,1.9-1.9,1.9s-1.9-0.9-1.9-1.9c0-1.1,0.9-1.9,1.9-1.9S259.7,498.1,259.7,499.2"/>
	<path class="st1" d="M387.5,499.2c0,1.1-0.9,1.9-1.9,1.9c-1.1,0-1.9-0.9-1.9-1.9c0-1.1,0.9-1.9,1.9-1.9
		C386.7,497.3,387.5,498.1,387.5,499.2"/>
</g>
<g>
	<path class="st2" d="M273.9,510.5c0-2.1,0.3-4,1-5.5s1.9-3.2,3.7-5c1.7-1.8,2.9-3.4,3.6-4.7c0.7-1.3,1-2.7,1-4.1
		c0-1.3-0.2-2.2-0.6-2.7c-0.4-0.5-1-0.7-1.8-0.7c-1.6,0-2.4,1-2.4,2.9v3.2h-4.4V491c0-2.4,0.6-4.3,1.8-5.6c1.2-1.3,2.9-1.9,5.2-1.9
		c2.3,0,4,0.6,5.2,1.9c1.2,1.3,1.8,3.1,1.8,5.6c0,1.8-0.4,3.6-1.3,5.3c-0.9,1.7-2.4,3.7-4.5,6c-1.4,1.5-2.3,2.7-2.8,3.6
		c-0.5,0.9-0.7,1.9-0.7,3v0.6h8.9v4.3h-13.5V510.5z"/>
	<path class="st2" d="M301,512.2c-1.2-1.3-1.8-3.2-1.8-5.5V491c0-2.4,0.6-4.2,1.8-5.5c1.2-1.3,3-2,5.3-2c2.3,0,4.1,0.7,5.3,2
		c1.2,1.3,1.8,3.2,1.8,5.5v15.7c0,2.4-0.6,4.2-1.8,5.5c-1.2,1.3-3,2-5.3,2C303.9,514.2,302.2,513.5,301,512.2z M308.7,507v-16.3
		c0-2-0.8-2.9-2.4-2.9c-1.6,0-2.4,1-2.4,2.9V507c0,2,0.8,2.9,2.4,2.9C307.9,509.9,308.7,509,308.7,507z"/>
	<path class="st2" d="M331.5,491h-4.9v-3.3c1.3,0,2.4-0.1,3.2-0.3c0.8-0.2,1.5-0.6,1.9-1.1c0.5-0.5,0.9-1.3,1.3-2.3h3.2v29.8h-4.7
		V491z"/>
	<path class="st2" d="M351.9,512.3c-1.2-1.3-1.8-3.1-1.8-5.6v-0.6h4.4v0.9c0,2,0.8,2.9,2.4,2.9c0.9,0,1.5-0.3,2-0.8
		c0.4-0.5,0.6-1.5,0.6-2.9v-5.7h-0.1c-0.8,1.7-2.2,2.6-4.3,2.6c-1.7,0-3-0.6-3.9-1.7c-0.9-1.2-1.3-2.9-1.3-5.1V491
		c0-2.4,0.6-4.2,1.8-5.5c1.2-1.3,3-2,5.3-2c2.3,0,4.1,0.7,5.3,2c1.2,1.3,1.8,3.2,1.8,5.5v15.4c0,5.2-2.4,7.8-7.2,7.8
		C354.8,514.2,353.1,513.5,351.9,512.3z M359.6,496v-5.3c0-1.9-0.8-2.9-2.4-2.9s-2.4,1-2.4,2.9v5.3c0,2,0.8,2.9,2.4,2.9
		S359.6,497.9,359.6,496z"/>
</g>
<polygon class="st3" points="258.8,451.6 256.5,443.8 248.1,445 248,453.1 241.7,454 242.5,409.2 252.6,407.8 265.8,450.6 "/>
<polygon class="st3" points="301.6,447.8 292.4,448.4 288.3,425.1 287.3,448.7 277.8,449.4 270,405.6 276.7,405.1 282.7,439.7 
	283.8,404.7 290.4,404.2 296.2,439 297.5,403.7 303.6,403.3 "/>
<polygon class="st3" points="330,447.6 328.9,439.5 320.3,439.5 319.1,447.5 312.7,447.4 320.1,403.3 330.3,403.4 337,447.6 "/>
<g>
	<path class="st3" d="M369,415.6l-0.3,3.5c-0.3,4.5-2.1,7.4-5.2,8.6c1.7,0.8,2.8,2.1,3.4,3.8c0.5,1.7,0.7,3.7,0.5,6l-0.5,6.8
		c-0.1,1.1-0.1,2.1-0.1,2.9c0,0.8,0.2,1.7,0.4,2.5l-7.1-0.5l-0.2-0.8l-0.1-1c0-0.4,0-0.9,0-1.5c0-0.6,0.1-1.3,0.1-2.2l0.5-6.9
		c0.1-2.1-0.1-3.5-0.8-4.4c-0.6-0.9-1.8-1.4-3.4-1.5l-2.4-0.2l-1.3,18l-6.9-0.5l3.2-44.1l10.5,0.8c3.6,0.3,6.2,1.3,7.7,3.1
		C368.7,409.6,369.3,412.2,369,415.6"/>
	<path class="st3" d="M402.5,420.7l-3.2,22.1c-0.5,3.5-1.7,6.1-3.7,7.7c-2,1.6-4.7,2.2-8.1,1.7l-10.9-1.5l6.2-43.8l10.9,1.5
		c3.5,0.5,5.9,1.8,7.3,3.9C402.6,414.4,403,417.2,402.5,420.7"/>
	<polygon class="st4" points="321.3,433.5 328,433.5 324.8,411.1 	"/>
</g>
<polygon class="st4" points="248.1,438.9 254.7,438 248.3,416.3 "/>
<g>
	<path class="st2" d="M588.3,490.8c-19.7-14.5-40.3-27.2-61.5-38.1c1.6-3.2,3.2-6.4,4.8-9.6c-132.5-68.3-289.5-68.4-422.1-0.4
		c1.6,3.2,3.2,6.4,4.8,9.6c-21.5,11-42.3,23.9-62.2,38.5c20.8-1.3,40.9-0.9,60.3,0.9c-9,17.6-16.5,35.5-22.6,53.4
		c25.2-18.7,52.1-33.9,80.1-45.7c-1.3-3.1-2.5-6.2-3.8-9.3c98.6-41.6,209.8-41.6,308.4,0c-1.3,3.1-2.5,6.2-3.8,9.3
		c27.9,11.8,54.8,27,80.1,45.7c-6.1-17.9-13.7-35.8-22.6-53.4C547.4,489.8,567.6,489.5,588.3,490.8 M258.8,451.6l-2.3-7.8l-8.4,1.2
		l-0.1,8.1l-6.3,0.9l0.8-44.8l10.1-1.4l13.2,42.8L258.8,451.6z M301.6,447.8l-9.2,0.6l-4.1-23.3l-1,23.7l-9.5,0.6l-7.8-43.8l6.7-0.4
		l6,34.5l1-35l6.7-0.4l5.8,34.8l1.3-35.3l6.1-0.4L301.6,447.8z M330,447.6l-1.1-8l-8.5-0.1l-1.3,8l-6.4,0l7.4-44.2l10.2,0.1
		l6.8,44.3L330,447.6z M369,415.6l-0.3,3.5c-0.3,4.5-2.1,7.4-5.2,8.6c1.7,0.8,2.8,2.1,3.4,3.8c0.5,1.7,0.7,3.7,0.5,6l-0.5,6.8
		c-0.1,1.1-0.1,2-0.1,2.9c0,0.8,0.2,1.7,0.5,2.5l-7.1-0.5l-0.2-0.8l-0.2-1c0-0.4,0-0.9,0-1.5c0-0.6,0.1-1.3,0.1-2.2l0.5-6.9
		c0.1-2.1-0.1-3.5-0.7-4.4c-0.7-0.9-1.8-1.4-3.4-1.5l-2.4-0.2l-1.3,18l-6.9-0.5l3.2-44.1l10.5,0.8c3.6,0.3,6.2,1.3,7.7,3.1
		C368.7,409.6,369.3,412.2,369,415.6 M402.5,420.7l-3.2,22.1c-0.5,3.5-1.7,6.1-3.7,7.7c-2,1.6-4.7,2.2-8.1,1.7l-10.9-1.5l6.2-43.8
		l10.9,1.5c3.5,0.5,5.9,1.8,7.3,3.9C402.6,414.4,403,417.2,402.5,420.7"/>
</g>
<g>
	<path class="st4" d="M358.9,411l-3.3-0.2l-1,13.5l2.7,0.2c1.3,0.1,2.3-0.2,3.1-0.8c0.8-0.6,1.2-1.8,1.4-3.6l0.3-4.3
		c0.1-1.6-0.1-2.8-0.6-3.5C360.9,411.5,360.1,411.1,358.9,411"/>
	<path class="st4" d="M392.8,414.7l-3.9-0.6l-4.4,31.3l3.9,0.5c1.1,0.2,2,0,2.7-0.6c0.7-0.5,1.2-1.6,1.4-3.2l3.2-22.8
		c0.2-1.6,0.1-2.7-0.5-3.4C394.7,415.3,393.9,414.8,392.8,414.7"/>
	<path class="st5" d="M174.7,288.9c2.8,0,7.3,0.1,9.5-1.1c-1.3-3-4.2-4.7-7.8-6.1l-1-0.4l0.2-16.1c0,0,12.2-0.6,21,15
		c3.8-4.6,5.9-10.8,6-18.6c0.2-17.2-9.7-27.2-27.2-27.4c-17.5-0.2-27.7,9.5-27.9,26.7C147.2,284.9,164.4,288.8,174.7,288.9"/>
	<path class="st5" d="M194.7,334.1c-3.9,1.2-9.1,2.9-9.2,7.9c-0.1,5.9,5.7,6.8,9.1,6.9c4.3,0.1,8.5-1.6,11.2-3.2
		C201.6,341.9,196.9,336.8,194.7,334.1"/>
	<path class="st5" d="M202.9,323.1c0-3.8-4.1-3.9-4.5-3.9c-2.7,0-4.5,1.6-4.6,4.1c0,1.8,0.8,3.6,2.9,5.9
		C199.5,328.2,202.8,327.1,202.9,323.1"/>
	<path class="st5" d="M409.9,323.7c-5.7-0.1-9.5,2.5-11.3,7.5l22.9,0.3C419.9,326.3,416.3,323.8,409.9,323.7"/>
	<path class="st5" d="M472.8,384.4c-4.8-0.1-7.9-1.1-9-1.5l-0.9-0.4l0.2-11.7l2.1,0.6c1.2,0.3,3.1,0.9,5.2,0.9
		c7.2,0.1,8.9-7.1,9-9.8c0-2.1-0.4-3.9-1.5-6.4l-13.5-27.6l-10.9-0.1l-0.3,19.2c0,3.6,1.6,5.2,5.4,5.3c1.9,0,5.7-0.4,8-1.1l1.7-0.5
		l-0.2,12.2l-1.6,0.2c-4.6,0.6-6.8,0.9-10.3,0.8c-11.1-0.1-15.7-4.5-15.6-14.7l0.3-21.6l-6.8-0.1l0.1-11.7l6.8,0.1l0.2-14.7
		l12.5,0.2l-0.2,14.7l6.5,0.1l0.8,0l13.4,0.3l0.3,0.8l12.8,30l13.9-30.7l7.3,0.1c-2.1-102.2-85.6-184.4-188.3-184.4
		c-66.1,0-124.3,34.1-157.9,85.6c4.1-0.9,8.5-1.3,13.3-1.3c28.1,0.4,44.6,17.4,44.3,45.5c-0.1,6.3-1.4,21.4-13.3,32.1
		c1.7,1.6,4.7,4.9,9.6,5.6c5.1,0.7,8.4-1.7,8.4-1.7l-0.2,14.1c0,0-3.5,2.6-12.1,1.7c-9.2-0.9-15.5-7.5-19.1-11.9
		c-5.1,1.9-11.9,3.2-18.7,3.1c-20.6-0.3-32.8-9.5-39-21.4c-2.4,11.9-3.6,24.2-3.6,36.8c0,35.1,9.6,67.9,26.3,96
		c107.6-38.5,215.8-39.5,323.8,0.5c15.2-25.4,24.6-54.8,26.3-86.2l-17,36.6C486.4,378.9,480,384.5,472.8,384.4 M222,353.2l-0.3,0.3
		c-4.7-0.2-8.4-1.7-12.4-4.9l-0.3,0.1c-3.5,2.1-7.4,4.4-15.1,4.3c-8.3-0.1-13-4.2-12.9-11.3c0.1-6.9,5.9-10.1,10.9-11.5
		c-2.1-2.9-2.5-5.6-2.5-7.5c0.1-3.9,2.7-7.8,8.6-7.7c5.7,0.1,9.1,3.2,9.1,8.3c-0.1,6.3-5,8.6-7.5,9.4c3.1,3.7,6.1,6.6,10,10.2
		c4-3.6,5.2-6.4,7-10.2l0.4-0.1l3.2,1.8l0.1,0.4c-1.5,3.8-3.9,7.3-7.3,10.8c3.2,2.1,5.2,3.1,8.7,3.4l0.3,0.3L222,353.2z
		 M344.6,227.1l12.7,0.2l-0.2,12.2l-12.7-0.2L344.6,227.1z M344.3,245l12.7,0.2l-0.6,48.8l-12.7-0.2L344.3,245z M325.7,228.4
		l12.7,0.2l-0.9,65.1l-12.6-0.2L325.7,228.4z M321,293.3l-13.5-0.2l-0.2-1.1c-0.2-1-0.3-1.9-0.4-2.7c-4.1,2.3-10.2,5.1-17.9,5
		c-6.7-0.1-18.1-3.5-17.9-15.5c0.2-17.5,25-18.9,36.1-19.4l0-0.8c0-3.1-3.3-4.7-9.9-4.8c-9.3-0.1-10.2,3.7-10.5,4.9l-0.2,1
		l-13.1-0.2l0.3-1.6c2.7-13,14.3-15.6,23.6-15.5c22.7,0.3,22.5,12.8,22.4,18.8l-0.3,23c-0.1,4.8,0.3,6.4,0.6,6.8L321,293.3z
		 M307,213.2c3,0,4.9,0.9,6.8,2.3l0.1-9.2l6.1,0.1l-0.4,31.1l-6.1-0.1l0-1.7c-2,1.6-4.3,2.4-7,2.3c-7.4-0.1-11.1-6.5-11-12.7
		C295.6,218,300.2,213.1,307,213.2 M272.9,216.7c2.1-2.5,5.3-3.8,9.1-3.8c3.9,0.1,7,1.4,9,4c1.8,2.2,2.7,5.2,2.7,8.5
		c-0.1,11.5-9.2,12.3-12,12.3c-2.8,0-11.9-1-11.7-12.6C270.1,221.8,271.1,218.8,272.9,216.7 M256.6,212.6c3.8,0,7,1.4,9,4
		c1.8,2.2,2.7,5.2,2.7,8.5c-0.1,11.5-9.2,12.3-12,12.3c-2.8,0-11.9-1-11.7-12.6c0-3.3,1.1-6.3,2.9-8.5
		C249.6,213.8,252.8,212.5,256.6,212.6 M219.3,236.1l0.4-31.1l26.2,0.3l-0.1,6.6l-19.3-0.3l-0.1,5.2l16.6,0.2l-0.1,6.6l-16.6-0.2
		l-0.2,12.7L219.3,236.1z M223.1,274.1l0.4-30.9l12.7,0.2l-0.4,26.9c-0.1,8.6,1.9,11.6,7.8,11.7c7.2,0.1,10.1-2.8,12.5-5.7l0.4-32.6
		l12.7,0.2l-0.6,48.8l-12.5-0.2l0.1-3.9c-2.8,2.5-7.4,5.4-15,5.3C229.1,293.7,222.9,286.9,223.1,274.1 M266,382.4
		c-7.9-0.1-34.2-2.1-39.9-23.6l-0.3-1.1l15.2-5l0.4,0.9c2.7,6.2,7.9,13.3,25.2,13.5c11.3,0.1,19.5-3.8,19.6-9.3
		c0.1-5.4-7.7-7.7-14.2-8.7l-16.8-2.8c-16.9-2.8-26.1-11.2-26-23.6c0.2-15.7,12.3-24.3,34.2-24c31.2,0.4,36.3,16.7,38,22.1l0.4,1.2
		l-15.1,5.2l-0.3-1.1c-1.6-5.2-5.8-12.2-23.5-12.4c-8.5-0.1-17.6,2-17.7,8.3c0,1.8-0.1,5.5,14.7,7.8l16.6,3
		c17.4,3.2,25.8,11,25.7,23.9C301.8,373.3,288.6,382.7,266,382.4 M338.4,360.9l-0.2-1.1c-0.2-0.9-0.3-1.7-0.4-2.5
		c-4,2.2-9.9,5-17.4,4.9c-6.6-0.1-17.7-3.4-17.6-15.2c0.2-17.1,24.4-18.5,35.2-19l0-0.7c0-3-3.2-4.5-9.6-4.6
		c-9-0.1-9.9,3.5-10.2,4.7l-0.3,1.1l-12.9-0.2l0.3-1.7c2.6-12.7,14-15.3,23.1-15.1c22.2,0.3,22,12.5,22,18.4l-0.3,22.4
		c-0.1,4.7,0.3,6.2,0.5,6.6l1,2.1L338.4,360.9z M371.5,361.5l-12.5-0.2l0.5-34.6l-7.3-0.1l0.1-11.7l7.3,0.1l0-2.1
		c0.1-3.7,1.5-16,18-15.4c3.7,0.1,6.7,1,9.7,1.8c0.8,0.2,1.7,0.5,2.5,0.7c2.6,0.7,3,0.7,5.7,1l0.6,0.1l1.2,0.1
		c7.6,0.1,7.9-6.6,7.9-7.4c0-2.1-0.4-4.1-1.6-6.6l-12.5-28.3l-11.4-0.1l-0.3,19.8c0,3.8,1.7,5.4,5.7,5.5c1.9,0,5.8-0.4,8.2-1.1
		l1.7-0.5l-0.2,12.4l-1.6,0.2c-4.7,0.6-7,0.9-10.6,0.8c-11.3-0.1-16.1-4.6-15.9-15l0.3-22.3l-7-0.1l0.2-11.8l7,0.1l0.2-15l12.7,0.2
		l-0.2,15l19.9,0.2l0.1,0.3l13.4,31.7l14.3-31.6l13.9,0.2l-24.1,51.4c-5.1,12.2-14.7,13.5-18.5,13.4h-0.3c-3.5-0.1-5.8-0.5-9.4-1.4
		l-0.7-0.2c-2.2-0.5-6.7-1.6-9.2-1.7c-6.2-0.2-7,3.3-7.1,5.9l14.2,0.1l-0.2,11.7l-14.2-0.1L371.5,361.5z M434.8,342.6l-36.9-0.5
		c1.3,6.3,5.4,9.7,12.3,10.1c5.9,0.1,9.4-3,10.5-5.6l0.3-0.9l13.3,0.2l-0.3,1.7c-0.9,4.2-7.1,16-23.6,15.8
		c-15.5-0.2-25.5-10.4-25.3-25.9c0.2-17.5,12.8-25.1,25.2-25c16.1,0.4,24.8,10.6,24.6,28.6L434.8,342.6z"/>
	<path class="st5" d="M284.6,278.4c0,1.5,0.3,2.6,1.1,3.4c1,1.1,2.6,1.7,4.9,1.7c6.7,0.1,12.2-2.7,16.3-5.2l0.1-8.4
		c-4.8,0.2-9.3,0.9-14,2C287.1,273.3,284.7,275.2,284.6,278.4"/>
	<path class="st5" d="M316.3,346.4c0,1.4,0.3,2.5,1,3.3c0.9,1,2.5,1.6,4.7,1.6c6.5,0.1,11.9-2.6,15.8-5l0.1-8c-4.6,0.2-9,0.9-13.6,2
		C318.7,341.6,316.4,343.4,316.3,346.4"/>
	<path class="st5" d="M307.6,232.1c2.7,0,4.4-1.3,6-2.6l0.1-7.7c-1.2-1.1-2.9-2.6-5.8-2.6c-3,0-6.2,2-6.3,6.4
		C301.6,230,304.7,232.1,307.6,232.1"/>
	<path class="st5" d="M281.8,231.8c3.6,0,5.7-2.3,5.7-6.5c0.1-4-2-6.4-5.6-6.5c-3.5,0-5.7,2.3-5.7,6.3
		C276.2,229.3,278.2,231.8,281.8,231.8"/>
	<path class="st5" d="M256.4,231.5c3.6,0,5.7-2.3,5.7-6.5c0.1-4-2-6.4-5.6-6.5c-3.5,0-5.7,2.3-5.7,6.3
		C250.8,229,252.8,231.4,256.4,231.5"/>
</g>
</svg>
